HIERARCHY
ROOT Hips
{
	OFFSET 0.00000 0.00000 0.00000
	CHANNELS 6 Xposition Yposition Zposition Zrotation Yrotation Xrotation 
	JOINT LHipJoint
	{
		OFFSET 0 0 0
		CHANNELS 3 Zrotation Yrotation Xrotation
		JOINT LeftHip
		{
			OFFSET 1.37959 -1.78713 0.86582
			CHANNELS 3 Zrotation Yrotation Xrotation
			JOINT LeftKnee
			{
				OFFSET 2.54611 -6.99539 0.00000
				CHANNELS 3 Zrotation Yrotation Xrotation
				JOINT LeftAnkle
				{
					OFFSET 2.59951 -7.14211 0.00000
					CHANNELS 3 Zrotation Yrotation Xrotation
					JOINT LeftToe
					{
						OFFSET 0.18493 -0.50810 1.96120
						CHANNELS 3 Zrotation Yrotation Xrotation
						End Site
						{
							OFFSET 0.00000 -0.00000 1.02054
						}
					}
				}
			}
		}
	}
	JOINT RHipJoint
	{
		OFFSET 0 0 0
		CHANNELS 3 Zrotation Yrotation Xrotation
		JOINT RightHip
		{
			OFFSET -1.33564 -1.78713 0.86582
			CHANNELS 3 Zrotation Yrotation Xrotation
			JOINT RightKnee
			{
				OFFSET -2.52705 -6.94302 0.00000
				CHANNELS 3 Zrotation Yrotation Xrotation
				JOINT RightAnkle
				{
					OFFSET -2.55964 -7.03257 0.00000
					CHANNELS 3 Zrotation Yrotation Xrotation
					JOINT RightToe
					{
						OFFSET -0.25804 -0.70896 2.12109
						CHANNELS 3 Zrotation Yrotation Xrotation
						End Site
						{
							OFFSET -0.00000 -0.00000 1.11821
						}
					}
				}
			}
		}
	}
	JOINT lowerback
	{
		OFFSET 0 0 0
		CHANNELS 3 Zrotation Yrotation Xrotation
		JOINT Chest
		{
			OFFSET -0.02031 2.24248 -0.18900
			CHANNELS 3 Zrotation Yrotation Xrotation
			JOINT Chest2
			{
				OFFSET 0.08342 2.24689 -0.03799
				CHANNELS 3 Zrotation Yrotation Xrotation
				JOINT lowerneck
				{
					OFFSET 0 0 0
					CHANNELS 3 Zrotation Yrotation Xrotation
					JOINT Neck
					{
						OFFSET -0.11607 1.55844 0.24628
						CHANNELS 3 Zrotation Yrotation Xrotation
						JOINT Head
						{
							OFFSET 0.06877 1.60174 -0.17013
							CHANNELS 3 Zrotation Yrotation Xrotation
							End Site
							{
								OFFSET 0.03358 1.61266 -0.08543
							}
						}
					}
				}
				JOINT LeftCollar
				{
					OFFSET 0 0 0
					CHANNELS 3 Zrotation Yrotation Xrotation
					JOINT LeftShoulder
					{
						OFFSET 3.47537 0.55866 -0.72348
CHANNELS 3 Zrotation Xrotation Yrotation
						JOINT LeftElbow
						{
OFFSET 0 -5.381540 0.000000
CHANNELS 3 Zrotation Xrotation Yrotation
							JOINT LeftWrist
							{
OFFSET 0 -3.333120 0.000000
CHANNELS 3 Zrotation Xrotation Yrotation
								JOINT lhand
								{
									OFFSET 0 0 0
CHANNELS 3 Zrotation Xrotation Yrotation
									JOINT LFingers
									{
OFFSET 0 -0.710790 0.000000
CHANNELS 3 Zrotation Xrotation Yrotation
										End Site
										{
OFFSET 0 -0.573060 0.000000
										}
									}
								}
								JOINT LThumb
								{
OFFSET 0 0.000000 0.000000
CHANNELS 3 Zrotation Xrotation Yrotation
									End Site
									{
OFFSET 0 -0.581810 0.581810
									}
								}
							}
						}
					}
				}
				JOINT RightCollar
				{
					OFFSET 0 0 0
					CHANNELS 3 Zrotation Yrotation Xrotation
					JOINT RightShoulder
					{
						OFFSET -3.27844 0.90739 -0.35708
CHANNELS 3 Zrotation Xrotation Yrotation
						JOINT RightElbow
						{
OFFSET 0 -5.169540 0.000000
CHANNELS 3 Zrotation Xrotation Yrotation
							JOINT RightWrist
							{
OFFSET 0 -3.382870 0.000000
CHANNELS 3 Zrotation Xrotation Yrotation
								JOINT rhand
								{
									OFFSET 0 0 0
CHANNELS 3 Zrotation Xrotation Yrotation
									JOINT RFingers
									{
OFFSET 0 -0.817970 0.000000
CHANNELS 3 Zrotation Xrotation Yrotation
										End Site
										{
OFFSET 0 -0.659470 0.000000
										}
									}
								}
								JOINT RThumb
								{
OFFSET 0 0.000000 0.000000
CHANNELS 3 Zrotation Xrotation Yrotation
									End Site
									{
OFFSET 0 -0.669530 0.669530
									}
								}
							}
						}
					}
				}
			}
		}
	}
}
MOTION
Frames: 7
Frame Time: 0.008333333333333333
-1.182200 17.902400 22.846900 -176.672000 -2.850300 -170.481000 0.000000 0.000000 0.000000 -11.163400 -7.531600 -37.132800 4.991700 13.374500 40.787000 0.596900 -3.463400 -13.826800 0.785800 -5.659100 -15.798600 0.000000 0.000000 0.000000 28.679700 -1.143600 1.118000 -0.316100 -3.614300 9.994100 -0.837100 7.982400 -16.428400 -0.460400 -4.352600 12.070900 2.792200 0.189000 2.202100 3.555800 0.199200 0.063500 2.080200 0.022000 -1.170200 -13.902300 -5.495700 -13.919400 4.899300 -5.436800 11.578100 3.268200 -2.905900 6.323600 -0.000000 -0.000000 0.000000 -2.740900 -0.584400 -17.168200 14.935400 -24.056000 3.199600 1.896000 11.604200 -36.592300 0.000000 0.000000 0.000000 -7.125000 0.000000 0.000000 -38.544500 62.358600 17.636700 -0.000000 -0.000000 0.000000 -3.619700 1.194900 9.310400 -16.058400 -25.599800 -3.671200 -16.948800 -14.942000 -18.597600 0.000000 0.000000 0.000000 7.125000 0.000000 -0.000000 7.295000 10.721700 5.859400
-1.186635 17.908300 22.825073 -176.589472 -2.775061 -170.457861 0.000000 0.000000 0.000000 -10.953842 -7.661523 -37.284897 4.927953 13.301614 40.509337 0.579315 -3.368609 -13.622062 0.677781 -5.234662 -14.585638 0.000000 0.000000 0.000000 28.730373 -1.278729 1.628707 -0.266082 -3.292674 9.096979 -0.796106 7.802112 -16.011057 -0.438843 -4.248746 11.777889 2.888495 0.229801 2.248724 3.543421 0.257856 0.057098 2.011517 0.050075 -1.203057 -13.774498 -5.526397 -13.979637 4.801617 -5.482344 11.630239 3.210007 -2.930504 6.348165 0.000000 0.000000 0.000000 -2.672873 -0.565079 -17.234955 14.913457 -24.025341 3.190653 1.826854 11.551251 -36.538657 0.000000 0.000000 0.000000 -7.125000 0.000000 0.000000 -38.547161 62.299211 17.584214 0.000000 0.000000 0.000000 -3.559617 1.226638 9.238632 -16.044903 -25.581482 -3.665338 -16.675649 -14.738728 -18.610211 0.000000 0.000000 0.000000 7.125000 0.000000 0.000000 7.473745 10.740134 6.002705
-1.191070 17.914201 22.803245 -176.506945 -2.699822 -170.434723 0.000000 0.000000 0.000000 -10.744283 -7.791446 -37.436995 4.864207 13.228727 40.231674 0.561729 -3.273818 -13.417325 0.569763 -4.810223 -13.372676 0.000000 0.000000 0.000000 28.781047 -1.413858 2.139413 -0.216064 -2.971048 8.199859 -0.755112 7.621824 -15.593715 -0.417285 -4.144893 11.484877 2.984790 0.270602 2.295348 3.531042 0.316513 0.050697 1.942834 0.078150 -1.235914 -13.646696 -5.557094 -14.039875 4.703933 -5.527889 11.682378 3.151813 -2.955108 6.372731 0.000000 0.000000 0.000000 -2.604845 -0.545759 -17.301710 14.891514 -23.994683 3.181706 1.757709 11.498303 -36.485014 0.000000 0.000000 0.000000 -7.125000 0.000000 0.000000 -38.549822 62.239822 17.531728 0.000000 0.000000 0.000000 -3.499534 1.258377 9.166864 -16.031405 -25.563164 -3.659476 -16.402498 -14.535455 -18.622821 0.000000 0.000000 0.000000 7.125000 0.000000 0.000000 7.652491 10.758567 6.146010
-1.195426 17.917245 22.781590 -176.459726 -2.621963 -170.426336 0.000000 0.000000 0.000000 -10.593715 -7.903479 -37.551555 4.783920 13.135236 39.878545 0.542669 -3.150215 -13.193567 0.442991 -4.172739 -11.575140 0.000000 0.000000 0.000000 28.797432 -1.506303 2.516417 -0.183340 -2.756980 7.603020 -0.731020 7.488238 -15.345619 -0.383252 -3.966216 10.982775 3.037333 0.300277 2.362546 3.514755 0.361328 0.044013 1.895023 0.099900 -1.280665 -13.532547 -5.572209 -14.091277 4.608918 -5.551181 11.720299 3.099269 -2.969198 6.389638 0.000000 0.000000 0.000000 -2.541180 -0.499964 -17.395283 14.890254 -23.992930 3.181186 1.806777 11.466068 -36.490172 0.000000 0.000000 0.000000 -7.125000 0.000000 0.000000 -38.508104 62.256512 17.524469 0.000000 0.000000 0.000000 -3.452821 1.307864 9.155042 -16.032345 -25.564415 -3.659876 -16.294844 -14.411008 -18.606980 0.000000 0.000000 0.000000 7.125000 0.000000 0.000000 7.722124 10.787186 6.198500
-1.199668 17.916127 22.760187 -176.463968 -2.540283 -170.439447 0.000000 0.000000 0.000000 -10.529119 -7.989439 -37.611407 4.679526 13.011715 39.415427 0.521459 -2.984620 -12.942089 0.288889 -3.224752 -8.925621 0.000000 0.000000 0.000000 28.763842 -1.536538 2.698556 -0.175820 -2.699674 7.443827 -0.731560 7.422717 -15.344192 -0.331036 -3.678488 10.175933 3.026111 0.313736 2.459728 3.492773 0.385970 0.036917 1.877630 0.112434 -1.342754 -13.438296 -5.564611 -14.129803 4.517790 -5.542041 11.737499 3.054959 -2.967964 6.395384 0.000000 0.000000 0.000000 -2.483874 -0.415585 -17.527944 14.919139 -24.033307 3.192948 2.028136 11.464024 -36.581030 0.000000 0.000000 0.000000 -7.125000 0.000000 0.000000 -38.401705 62.384082 17.583125 0.000000 0.000000 0.000000 -3.425594 1.383218 9.230590 -16.054327 -25.594186 -3.669402 -16.428392 -14.401444 -18.549674 0.000000 0.000000 0.000000 7.125000 0.000000 0.000000 7.632732 10.830648 6.118634
-1.203910 17.915008 22.738784 -176.468210 -2.458604 -170.452559 0.000000 0.000000 0.000000 -10.464524 -8.075399 -37.671259 4.575133 12.888193 38.952308 0.500248 -2.819025 -12.690612 0.134786 -2.276765 -6.276101 0.000000 0.000000 0.000000 28.730253 -1.566772 2.880695 -0.168300 -2.642367 7.284633 -0.732099 7.357196 -15.342766 -0.278820 -3.390760 9.369091 3.014889 0.327195 2.556910 3.470792 0.410613 0.029821 1.860238 0.124967 -1.404842 -13.344045 -5.557014 -14.168329 4.426663 -5.532901 11.754698 3.010648 -2.966730 6.401130 0.000000 0.000000 0.000000 -2.426567 -0.331207 -17.660606 14.948023 -24.073684 3.204711 2.249495 11.461980 -36.671887 0.000000 0.000000 0.000000 -7.125000 0.000000 0.000000 -38.295306 62.511653 17.641781 0.000000 0.000000 0.000000 -3.398368 1.458573 9.306137 -16.076308 -25.623958 -3.678927 -16.561940 -14.391880 -18.492367 0.000000 0.000000 0.000000 7.125000 0.000000 0.000000 7.543340 10.874110 6.038767
-1.207650 17.909904 22.717475 -176.488145 -2.399303 -170.484503 0.000000 0.000000 0.000000 -10.450962 -8.104299 -37.748027 4.474631 12.765017 38.497538 0.485378 -2.774328 -12.499395 0.229571 -2.863191 -7.914770 0.000000 0.000000 0.000000 28.679809 -1.648698 3.126139 -0.157453 -2.554021 7.039632 -0.727524 7.322528 -15.292817 -0.257079 -3.260211 9.004191 2.976518 0.331677 2.642008 3.461867 0.421038 0.028845 1.871971 0.130533 -1.453969 -13.379605 -5.532594 -14.145809 4.465504 -5.501792 11.765558 3.032781 -2.950901 6.400129 0.000000 0.000000 0.000000 -2.409278 -0.247079 -17.748197 14.973863 -24.109698 3.215249 2.325569 11.396318 -36.831699 0.000000 0.000000 0.000000 -7.125000 0.000000 0.000000 -38.418305 62.655230 17.837938 0.000000 0.000000 0.000000 -3.395685 1.526113 9.276543 -16.083947 -25.634302 -3.682238 -16.390891 -14.302973 -18.437289 0.000000 0.000000 0.000000 7.125000 0.000000 0.000000 7.653153 10.949428 6.116080
